<svg width="49" height="48" viewBox="0 0 49 48" fill="none" xmlns="http://www.w3.org/2000/svg">
<g clip-path="url(#clip0_5691_2174)">
<path d="M24.5 0C19.7533 0 15.1131 1.40758 11.1663 4.04473C7.21954 6.68188 4.14341 10.4302 2.3269 14.8156C0.510399 19.201 0.0351188 24.0266 0.961164 28.6822C1.88721 33.3377 4.17299 37.6141 7.52945 40.9706C10.8859 44.327 15.1623 46.6128 19.8178 47.5388C24.4734 48.4649 29.299 47.9896 33.6844 46.1731C38.0698 44.3566 41.8181 41.2805 44.4553 37.3337C47.0924 33.3869 48.5 28.7468 48.5 24C48.4931 17.6369 45.9624 11.5364 41.463 7.03704C36.9636 2.53766 30.8631 0.00688216 24.5 0V0ZM24.5 44C20.5444 44 16.6776 42.827 13.3886 40.6294C10.0996 38.4318 7.53617 35.3082 6.02242 31.6537C4.50867 27.9992 4.1126 23.9778 4.88431 20.0982C5.65601 16.2186 7.56082 12.6549 10.3579 9.85787C13.1549 7.06081 16.7186 5.156 20.5982 4.38429C24.4778 3.61259 28.4992 4.00866 32.1537 5.52241C35.8082 7.03616 38.9318 9.59961 41.1294 12.8886C43.327 16.1776 44.5 20.0444 44.5 24C44.4942 29.3025 42.3852 34.3862 38.6357 38.1357C34.8862 41.8852 29.8026 43.9942 24.5 44Z" fill="#009EDD"/>
<path d="M25.934 10.1253C24.7806 9.91516 23.5952 9.96107 22.4616 10.2598C21.3279 10.5585 20.2738 11.1027 19.3738 11.8539C18.4738 12.6051 17.7498 13.5449 17.2532 14.6069C16.7566 15.6688 16.4995 16.827 16.5 17.9993C16.5 18.5297 16.7107 19.0384 17.0858 19.4135C17.4609 19.7886 17.9696 19.9993 18.5 19.9993C19.0304 19.9993 19.5391 19.7886 19.9142 19.4135C20.2893 19.0384 20.5 18.5297 20.5 17.9993C20.4995 17.4109 20.6288 16.8295 20.8788 16.2968C21.1287 15.7641 21.4931 15.2931 21.946 14.9174C22.3989 14.5416 22.9291 14.2705 23.4988 14.1232C24.0686 13.9759 24.6638 13.9561 25.242 14.0653C26.0321 14.2187 26.7585 14.6041 27.3285 15.1723C27.8985 15.7405 28.2861 16.4657 28.442 17.2553C28.5994 18.0841 28.4907 18.9415 28.1315 19.7048C27.7723 20.4681 27.1809 21.0983 26.442 21.5053C25.2183 22.2142 24.2072 23.2383 23.5138 24.4709C22.8205 25.7035 22.4704 27.0994 22.5 28.5133V29.9993C22.5 30.5297 22.7107 31.0384 23.0858 31.4135C23.4608 31.7886 23.9696 31.9993 24.5 31.9993C25.0304 31.9993 25.5391 31.7886 25.9142 31.4135C26.2893 31.0384 26.5 30.5297 26.5 29.9993V28.5133C26.4749 27.8173 26.6336 27.127 26.9601 26.5119C27.2866 25.8967 27.7695 25.3785 28.36 25.0093C29.809 24.2134 30.9759 22.9882 31.7001 21.5021C32.4244 20.016 32.6705 18.342 32.4045 16.7103C32.1386 15.0787 31.3737 13.5695 30.215 12.3903C29.0563 11.2111 27.5607 10.4198 25.934 10.1253Z" fill="#009EDD"/>
<path d="M26.5 35.9994C26.5 34.8948 25.6046 33.9994 24.5 33.9994C23.3954 33.9994 22.5 34.8948 22.5 35.9994C22.5 37.104 23.3954 37.9994 24.5 37.9994C25.6046 37.9994 26.5 37.104 26.5 35.9994Z" fill="#009EDD"/>
</g>
<defs>
<clipPath id="clip0_5691_2174">
<rect width="48" height="48" fill="white" transform="translate(0.5)"/>
</clipPath>
</defs>
</svg>
